<svg width="104" height="29" viewBox="0 0 104 29" fill="none" xmlns="http://www.w3.org/2000/svg">
<path d="M55.6881 15.8082H57.8864V25.3724C57.8864 26.2136 57.6483 26.8719 57.1721 27.3474C56.6958 27.8228 56.0363 28.0606 55.1935 28.0606H50.9805V25.921H54.7539C55.3768 25.921 55.6881 25.6101 55.6881 24.9883V15.8082Z" fill="#00B533"/>
<path d="M60.3367 23.88V18.9266H62.436V23.8616C62.436 24.5465 62.6369 25.1214 63.0381 25.5861C63.4397 26.0386 63.9812 26.2649 64.6625 26.2649C65.356 26.2649 65.9039 26.0386 66.3055 25.5861C66.719 25.1214 66.9258 24.5465 66.9258 23.8616V18.9266H69.0247V23.88C69.0247 25.2131 68.6294 26.2833 67.8384 27.0905C67.0474 27.8855 65.989 28.283 64.6625 28.283C63.3486 28.283 62.2958 27.8855 61.5052 27.0905C60.726 26.2833 60.3367 25.2131 60.3367 23.88Z" fill="#00B533"/>
<path d="M76.3924 18.7056C77.5511 18.7056 78.469 19.0779 79.1471 19.8226C79.8251 20.5549 80.1637 21.5559 80.1637 22.8253V28.062H78.0377V23.1549C78.0377 22.4348 77.8343 21.861 77.4279 21.4338C77.0335 20.9944 76.5095 20.7747 75.8564 20.7747C75.1414 20.7747 74.55 21.0249 74.0814 21.5253C73.6132 22.0136 73.3789 22.6483 73.3789 23.4296V28.062H71.2529V18.962H73.342V20.1338H73.4158C74.1307 19.1817 75.1229 18.7056 76.3924 18.7056Z" fill="#00B533"/>
<path d="M82.1685 14.9172H84.3962V17.6919H82.1685V14.9172ZM82.1685 18.988H84.3962V28.0607H82.1685V18.988Z" fill="#00B533"/>
<path d="M91.0052 28.2848C89.5157 28.2848 88.3017 27.8286 87.3631 26.9163C86.4244 25.9919 85.9551 24.8484 85.9551 23.4861C85.9551 22.1237 86.4184 20.9864 87.3443 20.0741C88.283 19.1618 89.5031 18.7056 91.0052 18.7056C92.4815 18.7056 93.6768 19.1618 94.5906 20.0741C95.5166 20.9864 95.9798 22.1237 95.9798 23.4861C95.9798 24.8484 95.5166 25.9919 94.5906 26.9163C93.6642 27.8286 92.4693 28.2848 91.0052 28.2848ZM91.0052 26.2777C91.8309 26.2777 92.5068 26.0101 93.0323 25.4749C93.5578 24.9397 93.8206 24.2828 93.8206 23.5043C93.8206 22.7137 93.5578 22.0568 93.0323 21.5337C92.5068 20.9985 91.8309 20.7309 91.0052 20.7309C90.1541 20.7309 89.4595 20.9985 88.9214 21.5337C88.3954 22.0568 88.1326 22.7137 88.1326 23.5043C88.1326 24.2828 88.3954 24.9397 88.9214 25.4749C89.4595 26.0101 90.1541 26.2777 91.0052 26.2777Z" fill="#00B533"/>
<path d="M102.136 18.9266H104V21.0584H102.099C101.373 21.0584 100.782 21.2851 100.327 21.7384C99.8837 22.1916 99.6622 22.8104 99.6622 23.5945V28.0602H97.5396V18.9266H99.5885V20.4336H99.6622C100.093 19.4289 100.918 18.9266 102.136 18.9266Z" fill="#00B533"/>
<path d="M57.2953 1.78814e-06C58.5357 1.78814e-06 59.5755 0.41114 60.4147 1.23342C61.2544 2.04324 61.674 3.06486 61.674 4.29827C61.674 5.5566 61.2479 6.59066 60.3962 7.40049C59.5565 8.19784 58.5232 8.59656 57.2953 8.59656H53.6493V12.521H50.9806V1.78814e-06H57.2953ZM53.6493 6.07365H57.0883C57.627 6.07365 58.072 5.91169 58.4227 5.58775C58.7862 5.26382 58.9678 4.834 58.9678 4.29827C58.9678 3.79992 58.7862 3.38878 58.4227 3.06486C58.0595 2.74093 57.6144 2.57896 57.0883 2.57896H53.6493V6.07365Z" fill="white"/>
<path d="M63.2769 12.521V3.57628e-06H68.5764C70.4434 3.57628e-06 71.9843 0.585565 73.1996 1.75669C74.415 2.92781 75.0226 4.41663 75.0226 6.22313V6.27921C75.0226 8.08573 74.415 9.58076 73.1996 10.7643C71.9843 11.9355 70.4434 12.521 68.5764 12.521H63.2769ZM68.5389 2.57897H65.9456V9.9234H68.5389C69.6542 9.9234 70.5564 9.58703 71.2451 8.91423C71.9468 8.24148 72.2979 7.36312 72.2979 6.27921V6.22313C72.2979 5.13922 71.9468 4.2609 71.2451 3.58812C70.5564 2.91535 69.6542 2.57897 68.5389 2.57897Z" fill="white"/>
<path d="M83.0808 3.57628e-06C84.3211 3.57628e-06 85.3614 0.411142 86.2007 1.23342C87.0404 2.04324 87.46 3.06486 87.46 4.29827C87.46 5.55661 87.0339 6.59066 86.1821 7.40049C85.3424 8.19784 84.3086 8.59656 83.0808 8.59656H79.4353V12.521H76.7665V3.57628e-06H83.0808ZM79.4353 6.07365H82.8742C83.4129 6.07365 83.858 5.91169 84.2086 5.58775C84.5717 5.26382 84.7537 4.834 84.7537 4.29827C84.7537 3.79992 84.5717 3.38878 84.2086 3.06486C83.845 2.74093 83.4004 2.57897 82.8742 2.57897H79.4353V6.07365Z" fill="white"/>
<path fill-rule="evenodd" clip-rule="evenodd" d="M30.9978 28.4351H25.0931L32.0712 1.78814e-06H37.976L30.9965 28.4351H30.9978Z" fill="white"/>
<path fill-rule="evenodd" clip-rule="evenodd" d="M39.59 28.4351H33.6853L40.6648 3.57628e-06H46.5708L39.5913 28.4351H39.59Z" fill="white"/>
<path fill-rule="evenodd" clip-rule="evenodd" d="M12.5475 1.67266C5.62945 1.67266 0 7.3021 0 14.2202C0 21.1382 5.62945 26.766 12.5475 26.766C19.4656 26.766 25.0933 21.1365 25.0933 14.2202C25.0933 7.30381 19.4656 1.67266 12.5475 1.67266Z" fill="#00B533"/>
</svg>
