<svg width="16" height="18" viewBox="0 0 16 18" fill="none" xmlns="http://www.w3.org/2000/svg">
<path d="M7.96619 4.56587C7.19311 4.56587 6.43739 4.81275 5.7946 5.27529C5.15181 5.73783 4.65082 6.39525 4.35497 7.16442C4.05913 7.93359 3.98172 8.77997 4.13254 9.59652C4.28336 10.4131 4.65563 11.1631 5.20228 11.7518C5.74893 12.3405 6.4454 12.7414 7.20363 12.9038C7.96185 13.0663 8.74777 12.9829 9.462 12.6643C10.1762 12.3457 10.7867 11.8062 11.2162 11.1139C11.6457 10.4217 11.8749 9.60785 11.8749 8.7753C11.8749 7.65889 11.4631 6.58821 10.7301 5.79878C9.99706 5.00936 9.00285 4.56587 7.96619 4.56587ZM7.96619 11.301C7.50234 11.301 7.04891 11.1528 6.66324 10.8753C6.27756 10.5978 5.97696 10.2033 5.79946 9.74183C5.62195 9.28032 5.57551 8.7725 5.666 8.28257C5.75649 7.79264 5.97986 7.34261 6.30784 6.98939C6.63583 6.63617 7.05372 6.39563 7.50865 6.29817C7.96359 6.20072 8.43514 6.25074 8.86368 6.4419C9.29222 6.63306 9.65849 6.95678 9.91619 7.37212C10.1739 7.78746 10.3114 8.27577 10.3114 8.7753C10.3114 9.44514 10.0644 10.0876 9.62453 10.5612C9.18471 11.0349 8.58819 11.301 7.96619 11.301ZM11.8749 3.72399C11.7203 3.72399 11.5692 3.77336 11.4406 3.86587C11.3121 3.95838 11.2119 4.08986 11.1527 4.2437C11.0935 4.39753 11.078 4.56681 11.1082 4.73012C11.1384 4.89343 11.2128 5.04344 11.3222 5.16117C11.4315 5.27891 11.5708 5.3591 11.7224 5.39158C11.8741 5.42407 12.0313 5.40739 12.1741 5.34367C12.317 5.27995 12.439 5.17205 12.5249 5.0336C12.6108 4.89515 12.6567 4.73238 12.6567 4.56587C12.6567 4.34259 12.5743 4.12845 12.4277 3.97057C12.2811 3.81269 12.0823 3.72399 11.8749 3.72399ZM15.7368 5.60981C15.7238 4.89035 15.5969 4.17856 15.3615 3.5051C15.1433 2.89226 14.8078 2.33571 14.3768 1.87158C13.9458 1.40746 13.429 1.04613 12.8599 0.811063C12.2346 0.557571 11.5736 0.420906 10.9056 0.406958C10.1473 0.356445 9.89711 0.356445 7.96619 0.356445C6.03526 0.356445 5.7851 0.356445 5.02681 0.406958C4.35874 0.420906 3.69779 0.557571 3.07243 0.811063C2.50337 1.04613 1.98657 1.40746 1.5556 1.87158C1.12462 2.33571 0.789104 2.89226 0.570827 3.5051C0.335441 4.17856 0.208538 4.89035 0.195587 5.60981C0.148682 6.43486 0.148682 6.70426 0.148682 8.7753C0.148682 10.8463 0.148682 11.1157 0.195587 11.9408C0.208538 12.6602 0.335441 13.372 0.570827 14.0455C0.789104 14.6583 1.12462 15.2149 1.5556 15.679C1.98657 16.1431 2.50337 16.5045 3.07243 16.7395C3.69779 16.993 4.35874 17.1297 5.02681 17.1436C5.80856 17.1436 6.03526 17.1942 7.96619 17.1942C9.89711 17.1942 10.1473 17.1942 10.9056 17.1436C11.5736 17.1297 12.2346 16.993 12.8599 16.7395C13.429 16.5045 13.9458 16.1431 14.3768 15.679C14.8078 15.2149 15.1433 14.6583 15.3615 14.0455C15.5969 13.372 15.7238 12.6602 15.7368 11.9408C15.7368 11.0989 15.7837 10.8463 15.7837 8.7753C15.7837 6.70426 15.7837 6.43486 15.7368 5.60981ZM14.1733 11.865C14.1596 12.3993 14.0672 12.9278 13.8997 13.4309C13.7611 13.8286 13.5422 14.1881 13.2586 14.4833C12.9861 14.7888 12.6517 15.0222 12.2815 15.1652C11.8132 15.353 11.3191 15.4555 10.8196 15.4683C10.0847 15.4683 9.85802 15.5104 7.95837 15.5104C6.05872 15.5104 5.83983 15.5104 5.10498 15.5104C4.60624 15.4965 4.11275 15.397 3.64311 15.2157C3.27385 15.0665 2.94006 14.8307 2.66592 14.5254C2.38226 14.2319 2.16553 13.8717 2.0327 13.473C1.859 12.9714 1.76389 12.4423 1.75127 11.9071C1.75127 11.0652 1.75127 10.8548 1.75127 8.81739C1.75127 6.78003 1.75127 6.53588 1.75127 5.72767C1.76475 5.18988 1.85981 4.65809 2.0327 4.15335C2.1676 3.75819 2.38412 3.40123 2.66592 3.10941C2.93842 2.80394 3.27288 2.57054 3.64311 2.42748C4.11137 2.23966 4.60543 2.13722 5.10498 2.1244C5.83983 2.04022 6.06653 2.04022 7.96619 2.04022C9.86584 2.04022 10.0926 2.04022 10.8274 2.04022C11.3294 2.05396 11.8259 2.15635 12.2971 2.34329C12.664 2.48857 12.9955 2.72175 13.2665 3.02522C13.5501 3.31868 13.7668 3.67887 13.8997 4.07758C14.091 4.58992 14.1995 5.13379 14.2202 5.68558C14.2202 6.52747 14.2593 6.73794 14.2593 8.7753C14.2593 10.8127 14.2202 11.0568 14.2202 11.865H14.1733Z" fill="white"/>
</svg>
