<svg width="18" height="16" viewBox="0 0 18 16" fill="none" xmlns="http://www.w3.org/2000/svg">
<path d="M16.4993 0.764508L1.18461 6.46343C0.151784 6.82359 0.132857 7.50364 0.96364 7.72121L4.7378 9.09017L6.09458 13.7947C6.26688 14.2856 6.16856 14.4774 6.63312 14.4903C7.00476 14.5006 7.19598 14.3115 7.38721 14.1224C7.48283 14.0278 8.34335 13.1767 9.29949 12.2311L13.1179 15.3513C13.8504 15.7606 14.3203 15.5793 14.5305 14.7101L17.4862 2.0559C17.7946 0.995009 17.1605 0.394011 16.4993 0.764508ZM14.4671 3.62469L7.02811 10.3206L6.66015 13.5188L5.30338 8.81424L14.0079 3.41746C14.3877 3.13636 14.7539 3.341 14.4671 3.62469Z" fill="white"/>
</svg>
