<svg width="19" height="14" viewBox="0 0 19 14" fill="none" xmlns="http://www.w3.org/2000/svg">
<path fill-rule="evenodd" clip-rule="evenodd" d="M7.3983 9.06924L7.39774 3.98718L12.2504 6.53698L7.3983 9.06924ZM18.0532 3.10654C18.0532 3.10654 17.8775 1.86019 17.3393 1.31134C16.6562 0.590665 15.8907 0.587267 15.5399 0.545439C13.0266 0.362302 9.25662 0.362305 9.25662 0.362305H9.24877C9.24877 0.362305 5.4788 0.362302 2.9655 0.545439C2.61415 0.587267 1.84916 0.590665 1.16554 1.31134C0.627299 1.86019 0.452184 3.10654 0.452184 3.10654C0.452184 3.10654 0.272583 4.57051 0.272583 6.03391V7.40631C0.272583 8.87028 0.452184 10.3337 0.452184 10.3337C0.452184 10.3337 0.627299 11.58 1.16554 12.1289C1.84916 12.8496 2.7466 12.8269 3.14622 12.9021C4.58303 13.0412 9.25269 13.0841 9.25269 13.0841C9.25269 13.0841 13.0266 13.0785 15.5399 12.8953C15.8907 12.8529 16.6562 12.8496 17.3393 12.1289C17.8775 11.58 18.0532 10.3337 18.0532 10.3337C18.0532 10.3337 18.2328 8.87028 18.2328 7.40631V6.03391C18.2328 4.57051 18.0532 3.10654 18.0532 3.10654Z" fill="white"/>
</svg>
